<svg viewBox="0 0 24 24" xmlns="http://www.w3.org/2000/svg">
  <path d="M0,7.92857143 L0,1.28571429 C0,0.573214286 0.573214286,0 1.28571429,0 L7.92857143,0 C8.28214286,0 8.57142857,0.289285714 8.57142857,0.642857143 L8.57142857,1.92857143 C8.57142857,2.28214286 8.28214286,2.57142857 7.92857143,2.57142857 L2.57142857,2.57142857 L2.57142857,7.92857143 C2.57142857,8.28214286 2.28214286,8.57142857 1.92857143,8.57142857 L0.642857143,8.57142857 C0.289285714,8.57142857 0,8.28214286 0,7.92857143 Z M15.4285714,0.642857143 L15.4285714,1.92857143 C15.4285714,2.28214286 15.7178571,2.57142857 16.0714286,2.57142857 L21.4285714,2.57142857 L21.4285714,7.92857143 C21.4285714,8.28214286 21.7178571,8.57142857 22.0714286,8.57142857 L23.3571429,8.57142857 C23.7107143,8.57142857 24,8.28214286 24,7.92857143 L24,1.28571429 C24,0.573214286 23.4267857,0 22.7142857,0 L16.0714286,0 C15.7178571,0 15.4285714,0.289285714 15.4285714,0.642857143 Z M23.3571429,15.4285714 L22.0714286,15.4285714 C21.7178571,15.4285714 21.4285714,15.7178571 21.4285714,16.0714286 L21.4285714,21.4285714 L16.0714286,21.4285714 C15.7178571,21.4285714 15.4285714,21.7178571 15.4285714,22.0714286 L15.4285714,23.3571429 C15.4285714,23.7107143 15.7178571,24 16.0714286,24 L22.7142857,24 C23.4267857,24 24,23.4267857 24,22.7142857 L24,16.0714286 C24,15.7178571 23.7107143,15.4285714 23.3571429,15.4285714 Z M8.57142857,23.3571429 L8.57142857,22.0714286 C8.57142857,21.7178571 8.28214286,21.4285714 7.92857143,21.4285714 L2.57142857,21.4285714 L2.57142857,16.0714286 C2.57142857,15.7178571 2.28214286,15.4285714 1.92857143,15.4285714 L0.642857143,15.4285714 C0.289285714,15.4285714 0,15.7178571 0,16.0714286 L0,22.7142857 C0,23.4267857 0.573214286,24 1.28571429,24 L7.92857143,24 C8.28214286,24 8.57142857,23.7107143 8.57142857,23.3571429 Z" fill="currentColor"></path>
</svg>
