<svg viewBox="0 0 24 24" xmlns="http://www.w3.org/2000/svg">
  <path d="M23.3571429,8.57142857 L16.7142857,8.57142857 C16.0017857,8.57142857 15.4285714,7.99821429 15.4285714,7.28571429 L15.4285714,0.642857143 C15.4285714,0.289285714 15.7178571,0 16.0714286,0 L17.3571429,0 C17.7107143,0 18,0.289285714 18,0.642857143 L18,6 L23.3571429,6 C23.7107143,6 24,6.28928571 24,6.64285714 L24,7.92857143 C24,8.28214286 23.7107143,8.57142857 23.3571429,8.57142857 Z M8.57142857,7.28571429 L8.57142857,0.642857143 C8.57142857,0.289285714 8.28214286,0 7.92857143,0 L6.64285714,0 C6.28928571,0 6,0.289285714 6,0.642857143 L6,6 L0.642857143,6 C0.289285714,6 0,6.28928571 0,6.64285714 L0,7.92857143 C0,8.28214286 0.289285714,8.57142857 0.642857143,8.57142857 L7.28571429,8.57142857 C7.99821429,8.57142857 8.57142857,7.99821429 8.57142857,7.28571429 Z M8.57142857,23.3571429 L8.57142857,16.7142857 C8.57142857,16.0017857 7.99821429,15.4285714 7.28571429,15.4285714 L0.642857143,15.4285714 C0.289285714,15.4285714 0,15.7178571 0,16.0714286 L0,17.3571429 C0,17.7107143 0.289285714,18 0.642857143,18 L6,18 L6,23.3571429 C6,23.7107143 6.28928571,24 6.64285714,24 L7.92857143,24 C8.28214286,24 8.57142857,23.7107143 8.57142857,23.3571429 Z M18,23.3571429 L18,18 L23.3571429,18 C23.7107143,18 24,17.7107143 24,17.3571429 L24,16.0714286 C24,15.7178571 23.7107143,15.4285714 23.3571429,15.4285714 L16.7142857,15.4285714 C16.0017857,15.4285714 15.4285714,16.0017857 15.4285714,16.7142857 L15.4285714,23.3571429 C15.4285714,23.7107143 15.7178571,24 16.0714286,24 L17.3571429,24 C17.7107143,24 18,23.7107143 18,23.3571429 Z" fill="currentColor"></path>
</svg>
